#!OML:ASF F:\VICON\USERDATA\INSTALL\rory3\rory3.ASF
:FULLY-SPECIFIED
:DEGREES
71
root 0.669199101923013 17.825423161044768 44.755677366422844 -4.548750387456497 -0.12928682639594227 -0.1104209275334167
lfemur -3.667257428534416 -3.0503860363263655 -24.7654148359354
ltibia 36.437470203391676
lfoot -7.382611875396565 -1.2732008947990197
ltoes -7.987798332271231
rfemur -21.250380738200356 -3.186471403714034 23.31213421570442
rtibia 46.85614437436279
rfoot -3.754614298322892 -7.8334838421583495
rtoes 3.93414941045197
lowerback 11.63528332019564 0.670952855686731 -0.3046064186703228
upperback 0.3512068624509811 0.7640552608819638 1.1749344476126804
thorax -6.10296444213063 0.6157001370359961 1.2712508140643186
lowerneck -16.759234357406754 -3.2511470227602213 -2.4518917749002354
upperneck 20.835491761812804 -4.416653098811381 2.2967559122308696
head 9.34450922790147 -2.0852518316408086 0.4674067399466937
lclavicle 2.99924509437553e-16 5.589843890723103e-17
lhumerus -32.847088817838504 4.286759917335193 80.968902305406
lradius 25.601488580173037
lwrist 8.120354919893112
lhand -28.973729369437745 20.4324954606281
lfingers 7.125020000000001
lthumb -2.322403296664664 50.585895161746194
rclavicle 2.980854383014491e-16 5.457783818970547e-17
rhumerus -29.554292104329942 -20.604520451448913 -78.33053128079084
rradius 29.4343731159713
rwrist 3.369911738231323
rhand -18.045097843721035 23.23051978395519
rfingers 7.125020000000001
rthumb 8.024012071430029 -6.93433772548346
72
root 0.6454758584181346 17.80103547055814 45.35993839509009 -4.0619324838450925 0.5168656378838317 0.335032066669644
lfemur -1.2223976557668754 -3.1917289071374184 -25.59652823194148
ltibia 35.44237475537981
lfoot -7.28906888864456 -1.3512673411858422
ltoes -7.6553285189339535
rfemur -23.671093880714217 -2.6796889932909806 22.704942312119513
rtibia 43.78433144749514
rfoot -4.688073671973992 -7.838088723088468
rtoes 3.9326899407219247
lowerback 11.658785600259826 0.3589702794052725 -0.8476944462476148
upperback 0.39400364428455364 0.35210782607472324 1.2409140918506703
thorax -6.070452697164648 0.47090718979316115 1.638473659455803
lowerneck -16.729075629175387 -3.203616600361212 -2.3971597969410263
upperneck 20.824268010018162 -4.384595307675545 2.336846928199874
head 9.3344421247871 -2.078654714084506 0.46954468590029785
lclavicle 2.999245094378288e-16 5.589843890742907e-17
lhumerus -31.349489834696506 2.9930041858695464 81.2289815952495
lradius 25.95731316467368
lwrist 7.893526872414498
lhand -28.96592686080305 20.411601661575162
lfingers 7.125020000000001
lthumb -2.323842014575479 50.479528811258874
rclavicle 2.980854383014387e-16 5.457783818969799e-17
rhumerus -30.642803946870547 -20.662464444276214 -78.0914323241282
rradius 29.191775711491875
rwrist 3.282787244678576
rhand -18.043088544513555 23.24697768619722
rfingers 7.125020000000001
rthumb 8.004221509857894 -6.986870135230147
73
root 0.6208788561899877 17.776609994351677 46.28619719799355 -3.4767345319124674 1.1262792218355537 0.7514771082147647
lfemur 1.6193478513738446 -3.026173685962825 -25.993745961880947
ltibia 33.62374033458845
lfoot -7.152857848184152 -1.7791269807982155
ltoes -7.756286682754926
rfemur -25.36702756891725 -1.7479661144268754 22.031891615870034
rtibia 40.43935564059774
rfoot -5.317079265680007 -7.924221561359241
rtoes 3.8609833773464706
lowerback 11.604140924133809 0.071251208602918 -1.3922048906940059
upperback 0.43248856928749674 0.0024273857020968848 1.3196162496108386
thorax -6.027003712809391 0.32112288094260505 1.9676518697088645
lowerneck -16.794860506033917 -3.20624299136216 -2.399706715456768
upperneck 20.817740370265792 -4.3381939246077 2.3870117871743575
head 9.335615179029329 -2.067271490809361 0.482000620774156
lclavicle 2.9992450943775095e-16 5.589843890737314e-17
lhumerus -29.712540117334765 1.7531924557111678 81.39556708268248
lradius 26.24930278136557
lwrist 7.791508341642384
lhand -28.97365974209593 20.465003517517527
lfingers 7.125020000000001
lthumb -2.199818958361942 50.862045038457275
rclavicle 2.9808543830146223e-16 5.457783818971488e-17
rhumerus -31.670075840021003 -20.586352406302993 -77.88370369999758
rradius 28.88326321655502
rwrist 3.393825355380696
rhand -18.07602396823661 23.232590647771357
rfingers 7.125020000000001
rthumb 7.924066021310874 -7.1663673985645175
74
root 0.5829190248683922 17.736310031966816 46.85060662654447 -2.956555017943061 1.5692224437697075 1.0000399135498732
lfemur 4.412233990027699 -2.6774549867422732 -25.950512598847077
ltibia 31.367638764582793
lfoot -6.46527288542201 -1.9028161048020726
ltoes -8.428805771340162
rfemur -26.242384418274085 -0.6821916794729579 21.542170415145684
rtibia 37.45279489739971
rfoot -5.5414099889993285 -8.129434974253543
rtoes 3.79875457952749
lowerback 11.483625681097632 -0.19443793500746878 -1.9321615465519943
upperback 0.4467760180278349 -0.3273319614203918 1.374549992931252
thorax -5.964365262579223 0.18418336771124055 2.317059178404668
lowerneck -16.8325973314038 -3.2012187456596544 -2.3899279445481305
upperneck 20.78968303607588 -4.321687349963325 2.401037655583206
head 9.317407408302962 -2.074246338246177 0.46690545234696956
lclavicle 2.999245094377602e-16 5.589843890737983e-17
lhumerus -27.918661236808035 0.6605739239947179 81.53392962974327
lradius 26.458607170013323
lwrist 7.8106919730390745
lhand -28.983375757606545 20.419395815569708
lfingers 7.125020000000001
lthumb -2.2368245123494757 50.685526036228985
rclavicle 2.980854383013463e-16 5.4577838189631644e-17
rhumerus -32.61973899637074 -20.627600212326108 -77.65938698027277
rradius 28.492267474492404
rwrist 3.6916374256333424
rhand -18.09391654679715 23.237154399000627
rfingers 7.125020000000001
rthumb 7.918006631897359 -7.1966674720130515
